<?xml version="1.0" encoding="utf-8"?>
<!-- Generator: Adobe Illustrator 16.0.0, SVG Export Plug-In . SVG Version: 6.00 Build 0)  -->
<!DOCTYPE svg PUBLIC "-//W3C//DTD SVG 1.1//EN" "http://www.w3.org/Graphics/SVG/1.1/DTD/svg11.dtd">
<svg version="1.1" id="icons" xmlns="http://www.w3.org/2000/svg" xmlns:xlink="http://www.w3.org/1999/xlink" x="0px" y="0px"
	 width="64px" height="64px" viewBox="0 0 64 64" enable-background="new 0 0 64 64" xml:space="preserve">
<g>
	<g>
		<path fill="#656D78" d="M32.031,20.508c-0.553,0-1-0.447-1-1V1.5c0-0.553,0.447-1,1-1s1,0.447,1,1v18.008
			C33.031,20.061,32.584,20.508,32.031,20.508z"/>
	</g>
	<path fill="#656D78" d="M43.99,25.5c0-2.21,1.79-4,4-4H48v21.99v0.01h-0.01c-2.21,0-4-1.79-4-4V25.5z"/>
	<path fill="#656D78" d="M16,21.5c2.21,0,4,1.79,4,4v14c0,2.21-1.79,4-4,4v-0.01V21.5z"/>
	<path fill="#DA4453" d="M48,47.5c0,8.83-7.17,16-16,16c-8.84,0-16-7.17-16-16v-0.01V43.5c0.01,8.84,7.16,15.99,16,15.99
		c8.83,0,15.99-7.15,16-15.99v3.99V47.5z"/>
	<path fill="#ED5565" d="M32.03,19.5c-0.01,0-0.021,0-0.03,0c-1.109,0-2,0.9-2,2v9c0,1.11,0.891,2,2,2c1.101,0,2-0.89,2-2v-9
		C34,20.41,33.12,19.521,32.03,19.5z M32.03,13.5H40c4.42,0,8,3.58,8,8h-0.01c-2.21,0-4,1.79-4,4v14c0,2.21,1.79,4,4,4H48
		c-0.01,8.84-7.17,15.99-16,15.99c-8.84,0-15.99-7.15-16-15.99c2.21,0,4-1.79,4-4v-14c0-2.21-1.79-4-4-4c0-4.42,3.58-8,8-8H32.03z"
		/>
	<g>
		<path fill="none" stroke="#000000" stroke-width="2" stroke-linecap="round" stroke-linejoin="round" stroke-miterlimit="10" d="
			M33.997,19.508"/>
	</g>
	<g>
		<line fill="none" x1="32.031" y1="19.508" x2="32.031" y2="19.506"/>
	</g>
	<g>
		<path fill="#DA4453" d="M30.999,13.5v6.278C31.294,19.605,31.633,19.5,32,19.5c0.01,0,0.021,0,0.03,0
			c0.354,0.007,0.682,0.112,0.969,0.28V13.5H32.03H30.999z"/>
		<path fill="#DA4453" d="M32.999,44.508V32.224C32.704,32.395,32.365,32.5,32,32.5c-0.367,0-0.706-0.104-1.001-0.275v12.283
			c0,0.553,0.447,1,1,1S32.999,45.061,32.999,44.508z"/>
	</g>
	<path fill="#E6E9ED" d="M32,19c-1.379,0-2.5,1.121-2.5,2.5v9c0,1.379,1.121,2.5,2.5,2.5s2.5-1.121,2.5-2.5v-9
		C34.5,20.147,33.396,19.025,32,19z"/>
</g>
</svg>
